<svg xmlns="http://www.w3.org/2000/svg" width="551" height="197" fill="none">
    <path stroke="#ED6C2D" stroke-width="3"
          d="M1.62 151.49v1.5h98.78v38.51h44.4v-38.51h29.86V115.4h-29.87V81.08h-43.08v34.32H56.83l78.5-107.92 1.74-2.38H88.83l-.45.6L1.92 122.04l-.3.4v29.06Zm229.54 31.92h.01c12.14 7.5 25.87 11.23 41.15 11.23 15.44 0 29.17-3.73 41.14-11.23 12.15-7.68 21.67-18.74 28.59-33.1 6.93-14.4 10.37-31.76 10.37-52.01 0-20.25-3.44-37.6-10.37-52-6.92-14.37-16.44-25.34-28.59-32.85-11.96-7.67-25.7-11.5-41.14-11.5-15.29 0-29.02 3.83-41.15 11.5-12.15 7.5-21.67 18.48-28.59 32.85-6.93 14.4-10.37 31.75-10.37 52s3.44 37.6 10.37 52c6.92 14.37 16.44 25.43 28.58 33.1Zm58.86-33.4v.02H290c-4.95 3.8-10.82 5.72-17.69 5.72a28.9 28.9 0 0 1-17.7-5.72c-4.92-3.79-8.98-9.87-12.06-18.43-2.9-8.52-4.37-19.6-4.37-33.3 0-13.7 1.48-24.78 4.37-33.3 3.08-8.56 7.14-14.64 12.07-18.43a28.9 28.9 0 0 1 17.7-5.72c6.86 0 12.73 1.92 17.68 5.72h.01l.01.01c5.1 3.78 9.15 9.86 12.05 18.4V65l.01.01c3.07 8.51 4.63 19.59 4.63 33.29s-1.56 24.78-4.63 33.29v.03c-2.91 8.54-6.96 14.62-12.06 18.4Zm85.78 1.48v1.5h98.77v38.51h44.4v-38.51h29.87V115.4h-29.87V81.08h-43.09v34.32H431L509.51 7.48l1.74-2.38H463l-.45.6-86.46 116.33-.3.4v29.06Z"/>
</svg>