<svg width="68" height="65" viewBox="0 0 68 65" fill="none" xmlns="http://www.w3.org/2000/svg">
<ellipse cx="34" cy="32.3696" rx="23" ry="22.5" fill="#AC8B65"/>
<path d="M9.55653 24.3237L8.21554 13.4739L18.8216 11.5233L24.1855 1.89258L34.0601 6.28128L43.9347 1.89258L49.1768 11.5233L59.7828 13.4739L58.6856 24.3237L66.0001 32.2478L58.6856 40.2937L59.7828 50.8997L49.1768 53.0941L43.9347 62.8468L34.0601 58.0923L24.1855 62.8468L18.8216 53.0941L8.09363 50.8997L9.55653 40.2937L2.12012 32.2478L9.55653 24.3237Z" stroke="#AC8B65" stroke-width="2"/>
<path d="M26 32.1096L32.63 37.5696L42.51 25.8696" stroke="#1B1C1B" stroke-width="4" stroke-linecap="round"/>
<circle cx="34.0604" cy="32.2401" r="20.41" stroke="#1B1C1B" stroke-width="7"/>
<circle cx="34.0604" cy="32.2406" r="20.41" stroke="#AC8B65" stroke-width="3"/>
</svg>
