<svg width="47" height="66" viewBox="0 0 47 66" fill="none" xmlns="http://www.w3.org/2000/svg">
<rect x="1.14286" y="11.0491" width="44.7143" height="52.8095" rx="4.95238" stroke="#AC8B65" stroke-width="2.28571"/>
<path fill-rule="evenodd" clip-rule="evenodd" d="M23.8141 0C21.1298 0 18.8835 1.85247 18.3137 4.33386H14.9539C13.2707 4.33386 11.9062 5.69833 11.9062 7.38148V13.0481C11.9062 14.7313 13.2707 16.0958 14.9539 16.0958H32.0453C33.7285 16.0958 35.0929 14.7313 35.0929 13.0481V7.38148C35.0929 5.69833 33.7284 4.33386 32.0453 4.33386H29.3145C28.7447 1.85247 26.4984 0 23.8141 0ZM23.8128 4.95275C24.505 4.95275 25.0661 4.39844 25.0661 3.71466C25.0661 3.03088 24.505 2.47656 23.8128 2.47656C23.1206 2.47656 22.5594 3.03088 22.5594 3.71466C22.5594 4.39844 23.1206 4.95275 23.8128 4.95275Z" fill="#AC8B65"/>
<rect x="25.6934" y="24.7617" width="13.16" height="2.47619" rx="1.2381" fill="#AC8B65"/>
<rect x="25.6934" y="41.4766" width="13.16" height="2.47619" rx="1.2381" fill="#AC8B65"/>
<rect x="25.6934" y="29.7148" width="13.16" height="2.47619" rx="1.2381" fill="#AC8B65"/>
<rect x="25.6934" y="46.4277" width="13.16" height="2.47619" rx="1.2381" fill="#AC8B65"/>
<rect x="9.91532" y="23.428" width="9.62095" height="9.47619" stroke="#AC8B65" stroke-width="2.28571"/>
<rect x="9.91532" y="40.1429" width="9.62095" height="9.47619" stroke="#AC8B65" stroke-width="2.28571"/>
<path d="M13.7871 26.3101L17.5471 29.7148L23.8138 23.2148" stroke="#1B1C1B" stroke-width="4.19048" stroke-linecap="round"/>
<path d="M13.7871 43.023L17.5471 46.4277L23.8138 39.9277" stroke="#1B1C1B" stroke-width="4.19048" stroke-linecap="round"/>
<path d="M13.7871 26.3101L17.5471 29.7148L23.8138 23.2148" stroke="#AC8B65" stroke-width="2.28571" stroke-linecap="round"/>
<path d="M13.7871 43.023L17.5471 46.4277L23.8138 39.9277" stroke="#AC8B65" stroke-width="2.28571" stroke-linecap="round"/>
</svg>
