<svg width="84" height="65" viewBox="0 0 84 65" fill="none" xmlns="http://www.w3.org/2000/svg">
<path d="M37.9738 34.2906L36.9215 33.2602L35.872 34.2935L23.1138 46.8548L2.1078 25.9205L10.7177 17.057L22.0604 28.1121L23.0976 29.123L24.1442 28.1219L35.7553 17.0156L68.8291 49.0225L69.8509 50.0113L70.8929 49.0438L76.0746 44.2321V63.5H57.361L61.3433 59.2188L62.3391 58.1483L61.2944 57.1254L37.9738 34.2906Z" fill="#1B1C1B" stroke="#AC8B65" stroke-width="3" stroke-linecap="round"/>
<path d="M67.8139 4.71631L56.6319 23.2256C55.7288 25.2488 57.277 25.898 58.1641 25.9697H80.4204C82.1622 25.9697 82.3288 24.0407 81.845 23.2256C78.5926 17.7464 71.7921 6.37354 70.6093 4.71631C69.4266 3.05908 68.2529 4.0258 67.8139 4.71631Z" fill="#AC8B65" stroke="#AC8B65" stroke-width="2.37805"/>
<path d="M69.9691 20.4504C69.7283 20.5407 69.4611 20.5859 69.1676 20.5859C68.9719 20.5859 68.8138 20.5708 68.6934 20.5407C68.5805 20.5106 68.4902 20.4617 68.4225 20.3939C68.3547 20.3187 68.3058 20.2246 68.2757 20.1117C68.2531 19.9988 68.2381 19.8596 68.2305 19.694L67.8354 12.1866C67.7978 11.434 67.7489 10.8093 67.6887 10.3126C67.6284 9.81583 67.5983 9.47339 67.5983 9.28524C67.5983 9.23255 67.5983 9.18363 67.5983 9.13847C67.5983 9.08579 67.6021 9.03311 67.6096 8.98042C67.7752 8.83742 67.9747 8.73206 68.208 8.66432C68.4488 8.58906 68.7499 8.55143 69.1111 8.55143C69.5853 8.55143 69.9164 8.64174 70.1046 8.82237C70.2927 9.003 70.3868 9.28524 70.3868 9.66907C70.3868 9.71423 70.383 9.77068 70.3755 9.83841C70.3755 9.89862 70.3718 10.004 70.3642 10.1545C70.3642 10.305 70.3567 10.5158 70.3417 10.7867C70.3266 11.0577 70.304 11.4227 70.2739 11.8818C70.2513 12.3409 70.2212 12.9129 70.1836 13.5978C70.1535 14.2751 70.1121 15.0992 70.0594 16.0701C70.0218 16.8002 69.9879 17.4474 69.9578 18.0119C69.9352 18.5688 69.9239 19.043 69.9239 19.4344C69.9239 19.615 69.9277 19.7919 69.9352 19.965C69.9428 20.1381 69.9541 20.2999 69.9691 20.4504ZM69.0885 25.2484C68.8176 25.2484 68.5843 25.2032 68.3886 25.1129C68.1929 25.0301 68.0273 24.9172 67.8919 24.7742C67.7639 24.6237 67.6661 24.4581 67.5983 24.2775C67.5381 24.0893 67.508 23.8974 67.508 23.7017C67.508 23.5136 67.5419 23.3254 67.6096 23.1373C67.6774 22.9416 67.7752 22.7685 67.9032 22.6179C68.0386 22.4674 68.2042 22.347 68.3999 22.2567C68.5956 22.1588 68.8251 22.1099 69.0885 22.1099C69.3444 22.1099 69.5702 22.1588 69.7659 22.2567C69.9691 22.347 70.1347 22.4674 70.2626 22.6179C70.3981 22.7685 70.4997 22.9416 70.5674 23.1373C70.6352 23.3254 70.669 23.5136 70.669 23.7017C70.669 23.8974 70.6352 24.0893 70.5674 24.2775C70.5072 24.4581 70.4094 24.6237 70.2739 24.7742C70.146 24.9172 69.9804 25.0301 69.7772 25.1129C69.5815 25.2032 69.352 25.2484 69.0885 25.2484Z" fill="#1B1C1B"/>
</svg>
