<svg width="68" height="68" viewBox="0 0 68 68" fill="none" xmlns="http://www.w3.org/2000/svg">
<path d="M3.29163 2H45.334C46.0474 2 46.6256 2.57828 46.6256 3.29163V30.3512C46.6256 31.0645 47.2039 31.6428 47.9173 31.6428H62.6418C63.3551 31.6428 63.9334 32.2211 63.9334 32.9344V35.1948C63.9334 35.7654 64.396 36.2281 64.9667 36.2281C65.5374 36.2281 66 36.6907 66 37.2614V64.773C66 65.4863 65.4217 66.0646 64.7084 66.0646H11.2163C10.8576 66.0646 10.5151 65.9154 10.2707 65.6529L2.34607 57.1368C2.12365 56.8978 2 56.5834 2 56.2569V3.29162C2 2.57828 2.57828 2 3.29163 2Z" stroke="#AC8B65" stroke-width="2.29"/>
<path d="M23.1836 66.2588V43.0095C23.1836 41.5829 24.3402 40.4263 25.7668 40.4263H46.9356C47.6072 40.4263 48.2524 40.1648 48.7344 39.6971L51.5581 36.9577C52.0402 36.49 52.6853 36.2285 53.3569 36.2285H64.7739" stroke="#AC8B65" stroke-width="2.29"/>
<path d="M25.4434 40.4259V31.2916C25.4434 30.5783 26.0216 30 26.735 30H39.6041C39.8621 30 40.1142 30.0773 40.3279 30.2219L42.1003 31.421C42.314 31.5656 42.5661 31.6429 42.8241 31.6429H48.0468" stroke="#AC8B65" stroke-width="2.29"/>
<path d="M23.3125 65.8062L31.1264 56.171C31.6169 55.5661 32.3541 55.2148 33.1328 55.2148H65.9361" stroke="#AC8B65" stroke-width="2.29"/>
<path d="M8.12171 10.9518L7.68359 9.91025L9.58487 8.95962H10.395V14.7461H9.15501V10.4806L8.12171 10.9518ZM11.3906 14.0765C11.3906 13.8781 11.4705 13.7128 11.6303 13.5805C11.7901 13.4428 11.9692 13.3739 12.1676 13.3739C12.2668 13.3739 12.377 13.3987 12.4983 13.4483C12.614 13.5034 12.7159 13.5888 12.8041 13.7045C12.8868 13.8258 12.9281 13.9498 12.9281 14.0765C12.9281 14.2694 12.8482 14.4375 12.6884 14.5808C12.5341 14.7241 12.3605 14.7957 12.1676 14.7957C11.9582 14.7957 11.7763 14.7268 11.622 14.589C11.4677 14.4513 11.3906 14.2804 11.3906 14.0765Z" fill="#AC8B65"/>
<path d="M8.44731 22.4328L7.33134 22.0112C7.47463 21.4601 7.76395 21.033 8.19932 20.7299C8.63468 20.4213 9.13893 20.267 9.71207 20.267C10.3458 20.267 10.8556 20.4351 11.2413 20.7712C11.6326 21.1019 11.8283 21.5731 11.8283 22.1848C11.8283 22.4658 11.7814 22.7304 11.6877 22.9784C11.594 23.2264 11.4563 23.4523 11.2744 23.6562C11.0981 23.8601 10.9162 24.0392 10.7288 24.1935C10.5415 24.3423 10.3183 24.4994 10.0593 24.6647L9.67073 24.9127H11.8861V26.1113H7.41401V25.1772L8.10012 24.6978C8.45833 24.4553 8.89645 24.1467 9.41448 23.7719C9.60736 23.6231 9.76993 23.4909 9.90219 23.3752C10.04 23.2539 10.175 23.0913 10.3072 22.8874C10.4395 22.6835 10.5056 22.4879 10.5056 22.3005C10.5056 22.036 10.4312 21.8376 10.2824 21.7053C10.1337 21.5731 9.92699 21.5069 9.66247 21.5069C9.08933 21.5069 8.68428 21.8156 8.44731 22.4328ZM12.4875 25.4417C12.4875 25.2434 12.5674 25.078 12.7272 24.9458C12.8871 24.808 13.0662 24.7391 13.2646 24.7391C13.3637 24.7391 13.474 24.7639 13.5952 24.8135C13.7109 24.8686 13.8129 24.954 13.9011 25.0698C13.9837 25.191 14.0251 25.315 14.0251 25.4417C14.0251 25.6346 13.9452 25.8027 13.7853 25.946C13.631 26.0893 13.4574 26.1609 13.2646 26.1609C13.0551 26.1609 12.8733 26.092 12.719 25.9543C12.5647 25.8165 12.4875 25.6457 12.4875 25.4417Z" fill="#AC8B65"/>
<path d="M8.42251 33.8346L7.39747 33.3551C7.77222 32.3687 8.58233 31.8755 9.8278 31.8755C10.3844 31.8755 10.8611 32.005 11.2579 32.264C11.6602 32.5175 11.8613 32.9032 11.8613 33.4213C11.8613 33.9724 11.6106 34.3664 11.1091 34.6034C11.7373 34.8293 12.0515 35.2757 12.0515 35.9425C12.0515 36.5432 11.8393 37.0034 11.4149 37.323C10.9906 37.6426 10.4671 37.8025 9.84433 37.8025C9.20506 37.8025 8.67326 37.6867 8.24891 37.4553C7.82457 37.2238 7.50769 36.8298 7.29828 36.2732L8.42251 35.7689C8.47762 35.9453 8.57681 36.1023 8.7201 36.2401C8.86889 36.3779 9.03422 36.4716 9.21608 36.5212C9.38141 36.5763 9.54674 36.6038 9.71207 36.6038C9.96557 36.6038 10.197 36.5515 10.4064 36.4468C10.6214 36.3366 10.7288 36.1685 10.7288 35.9425C10.7288 35.8047 10.6792 35.689 10.58 35.5953C10.4864 35.5016 10.3651 35.4355 10.2163 35.3969C10.051 35.3694 9.91046 35.3556 9.79473 35.3556H8.95156V34.1983H9.6294C9.84984 34.1983 10.0565 34.1515 10.2494 34.0578C10.4423 33.9641 10.5387 33.8181 10.5387 33.6197C10.5387 33.4488 10.4726 33.3138 10.3403 33.2146C10.197 33.1209 9.98761 33.0741 9.71207 33.0741C9.08382 33.0741 8.65397 33.3276 8.42251 33.8346ZM12.7135 37.0667C12.7135 36.8684 12.7935 36.703 12.9533 36.5708C13.1131 36.433 13.2922 36.3641 13.4906 36.3641C13.5898 36.3641 13.7 36.3889 13.8212 36.4385C13.937 36.4936 14.0389 36.579 14.1271 36.6948C14.2098 36.816 14.2511 36.94 14.2511 37.0667C14.2511 37.2596 14.1712 37.4277 14.0114 37.571C13.8571 37.7143 13.6835 37.7859 13.4906 37.7859C13.2812 37.7859 13.0993 37.717 12.945 37.5793C12.7907 37.4415 12.7135 37.2707 12.7135 37.0667Z" fill="#AC8B65"/>
<path d="M21 9V23.3158H38" stroke="#AC8B65" stroke-width="2.04895" stroke-linecap="round"/>
<path d="M24 20.5L28 16H31.5L37 9.5" stroke="#AC8B65" stroke-linecap="round"/>
<path d="M27.5 60.5L23.5 66H64L66 65V55H33.5L31.5 56L27.5 60.5Z" fill="#AC8B65"/>
</svg>
