<svg width="24" height="24" viewBox="0 0 24 24" fill="none" xmlns="http://www.w3.org/2000/svg">
<path d="M12 13.875C12.4973 13.875 12.9742 13.6774 13.3258 13.3258C13.6775 12.9742 13.875 12.4972 13.875 12C13.875 11.5027 13.6775 11.0258 13.3258 10.6741C12.9742 10.3225 12.4973 10.125 12 10.125C11.5027 10.125 11.0258 10.3225 10.6742 10.6741C10.3225 11.0258 10.125 11.5027 10.125 12C10.125 12.4972 10.3225 12.9742 10.6742 13.3258C11.0258 13.6774 11.5027 13.875 12 13.875ZM5.4375 12C5.4375 10.2595 6.1289 8.59028 7.35961 7.35957C8.59032 6.12887 10.2595 5.43746 12 5.43746C13.7405 5.43746 15.4097 6.12887 16.6404 7.35957C17.8711 8.59028 18.5625 10.2595 18.5625 12C18.5625 13.7404 17.8711 15.4096 16.6404 16.6403C15.4097 17.8711 13.7405 18.5625 12 18.5625C10.2595 18.5625 8.59032 17.8711 7.35961 16.6403C6.1289 15.4096 5.4375 13.7404 5.4375 12ZM12 7.31246C10.7568 7.31246 9.56451 7.80632 8.68544 8.6854C7.80636 9.56447 7.3125 10.7568 7.3125 12C7.3125 13.2432 7.80636 14.4354 8.68544 15.3145C9.56451 16.1936 10.7568 16.6875 12 16.6875C13.2432 16.6875 14.4355 16.1936 15.3146 15.3145C16.1936 14.4354 16.6875 13.2432 16.6875 12C16.6875 10.7568 16.1936 9.56447 15.3146 8.6854C14.4355 7.80632 13.2432 7.31246 12 7.31246ZM0.75 12C0.75 9.01603 1.93536 6.15431 4.04532 4.04435C6.15528 1.93439 9.017 0.749023 12.0009 0.749023C14.9849 0.749023 17.8466 1.93439 19.9566 4.04435C22.0665 6.15431 23.2519 9.01603 23.2519 12C23.2519 14.9839 22.0665 17.8456 19.9566 19.9556C17.8466 22.0655 14.9849 23.2509 12.0009 23.2509C9.017 23.2509 6.15528 22.0655 4.04532 19.9556C1.93536 17.8456 0.75 14.9839 0.75 12ZM12 2.62496C9.51335 2.62496 7.12854 3.61278 5.37021 5.37111C3.61188 7.12944 2.62406 9.51424 2.62406 12.0009C2.62406 14.4875 3.61188 16.8724 5.37021 18.6307C7.12854 20.389 9.51335 21.3768 12 21.3768C14.4867 21.3768 16.8715 20.389 18.6298 18.6307C20.3881 16.8724 21.3759 14.4875 21.3759 12.0009C21.3759 9.51424 20.3881 7.12944 18.6298 5.37111C16.8715 3.61278 14.4867 2.62496 12 2.62496Z" fill="#AC8B65"/>
</svg>
