<svg width="21" height="23" viewBox="0 0 21 23" fill="none" xmlns="http://www.w3.org/2000/svg">
<rect y="20.8223" width="20.1326" height="1.67771" rx="0.838857" fill="#AC8B65"/>
<path fill-rule="evenodd" clip-rule="evenodd" d="M3.29892 10.6152C3.58991 10.3679 3.77453 9.99921 3.77453 9.58742C3.77453 8.84285 3.17094 8.23926 2.42637 8.23926C1.6818 8.23926 1.07821 8.84285 1.07821 9.58742C1.07821 10.0175 1.2796 10.4005 1.59321 10.6474C0.676061 10.8901 0 11.7256 0 12.7191V16.7021C0 17.8856 0.959389 18.845 2.14286 18.845H2.89028C4.07375 18.845 5.03314 17.8856 5.03314 16.7021V12.7191C5.03314 11.6754 4.28694 10.8059 3.29892 10.6152Z" fill="#AC8B65"/>
<path fill-rule="evenodd" clip-rule="evenodd" d="M10.8478 10.6152C11.1387 10.3679 11.3234 9.99921 11.3234 9.58742C11.3234 8.84285 10.7198 8.23926 9.9752 8.23926C9.23063 8.23926 8.62704 8.84285 8.62704 9.58742C8.62704 10.0175 8.82842 10.4005 9.14204 10.6474C8.22489 10.8901 7.54883 11.7256 7.54883 12.7191V16.7021C7.54883 17.8856 8.50822 18.845 9.69168 18.845H10.4391C11.6226 18.845 12.582 17.8856 12.582 16.7021V12.7191C12.582 11.6754 11.8358 10.8059 10.8478 10.6152Z" fill="#AC8B65"/>
<path fill-rule="evenodd" clip-rule="evenodd" d="M18.3985 10.6152C18.6895 10.3679 18.8741 9.99921 18.8741 9.58742C18.8741 8.84285 18.2705 8.23926 17.526 8.23926C16.7814 8.23926 16.1778 8.84285 16.1778 9.58742C16.1778 10.0175 16.3792 10.4005 16.6928 10.6474C15.7757 10.8901 15.0996 11.7256 15.0996 12.7191V16.7021C15.0996 17.8856 16.059 18.845 17.2425 18.845H17.9899C19.1734 18.845 20.1327 17.8856 20.1327 16.7021V12.7191C20.1327 11.6754 19.3865 10.8059 18.3985 10.6152Z" fill="#AC8B65"/>
<path d="M2.5166 18.3057V20.8222" stroke="#AC8B65" stroke-width="2"/>
<path d="M10.0664 18.3057V20.8222" stroke="#AC8B65" stroke-width="2"/>
<path d="M17.6162 18.3057V20.8222" stroke="#AC8B65" stroke-width="2"/>
<rect x="7.5" y="0.5" width="6" height="6" rx="1.5" stroke="#AC8B65"/>
<path d="M9.19043 3.16897L10.501 4.5L12.001 2.5" stroke="#AC8B65" stroke-width="0.777778" stroke-linecap="round"/>
</svg>
