<svg width="32" height="23" viewBox="0 0 32 23" fill="none" xmlns="http://www.w3.org/2000/svg">
<path d="M3.82222 1C2.26355 1 1 2.26355 1 3.82222V19.1778C1 20.7364 2.26355 22 3.82222 22H16.7322C18.2909 22 19.5545 20.7365 19.5545 19.1778V3.82222C19.5545 2.26355 18.2909 1 16.7322 1H3.82222Z" stroke="white" stroke-width="2"/>
<path d="M27.334 12.9395L22.44 12.9395C21.9631 12.9395 21.5764 12.5528 21.5764 12.0758C21.5764 11.5988 21.9631 11.2122 22.44 11.2122L27.334 11.2122L27.334 12.9395Z" fill="white"/>
<path d="M16.4551 18.334L11.7521 18.334C11.3365 18.334 10.9996 17.9971 10.9996 17.5815C10.9996 17.1659 11.3365 16.829 11.7521 16.829L16.4551 16.829L16.4551 18.334Z" fill="white"/>
<path d="M9.30957 18.3345L4.6066 18.3345C4.19102 18.3345 3.85412 17.9976 3.85412 17.582C3.85412 17.1664 4.19102 16.8295 4.6066 16.8295L9.30957 16.8295L9.30957 18.3345Z" fill="white"/>
<path d="M9.45508 14.5049L4.75211 14.5049C4.33653 14.5049 3.99963 14.168 3.99963 13.7524C3.99963 13.3368 4.33653 12.9999 4.75211 12.9999L9.45508 12.9999L9.45508 14.5049Z" fill="white"/>
<path d="M16.4551 14.5049L11.7521 14.5049C11.3365 14.5049 10.9996 14.168 10.9996 13.7524C10.9996 13.3368 11.3365 12.9999 11.7521 12.9999L16.4551 12.9999L16.4551 14.5049Z" fill="white"/>
<path d="M28.4873 11.5H31.9419" stroke="white" stroke-width="0.455556"/>
<path d="M28.4873 12.6514H29.9267" stroke="white" stroke-width="0.455556"/>
</svg>
