<svg width="24" height="22" viewBox="0 0 24 22" fill="none" xmlns="http://www.w3.org/2000/svg">
<rect x="1" y="1" width="14" height="20" rx="2" stroke="#AC8B65" stroke-width="2"/>
<path d="M22.2129 6.36328L22.7129 6.36328L22.7129 5.86328L22.7129 3.99965L22.7129 3.49965L22.2129 3.49965L16.9326 3.49964C16.1418 3.49964 15.5008 4.14069 15.5008 4.93146C15.5008 5.72223 16.1418 6.36328 16.9326 6.36328L22.2129 6.36328Z" fill="#AC8B65" stroke="#1B1C1B"/>
<path d="M22.2129 12.3633L22.7129 12.3633L22.7129 11.8633L22.7129 9.99965L22.7129 9.49965L22.2129 9.49965L16.9326 9.49964C16.1418 9.49964 15.5008 10.1407 15.5008 10.9315C15.5008 11.7222 16.1418 12.3633 16.9326 12.3633L22.2129 12.3633Z" fill="#AC8B65" stroke="#1B1C1B"/>
<path d="M22.2129 18.3633L22.7129 18.3633L22.7129 17.8633L22.7129 15.9996L22.7129 15.4996L22.2129 15.4996L16.9326 15.4996C16.1418 15.4996 15.5008 16.1407 15.5008 16.9315C15.5008 17.7222 16.1418 18.3633 16.9326 18.3633L22.2129 18.3633Z" fill="#AC8B65" stroke="#1B1C1B"/>
</svg>
