<svg width="18" height="18" viewBox="0 0 18 18" fill="" xmlns="http://www.w3.org/2000/svg">
<path d="M2.41301 3.21048C2.36071 3.15818 2.31922 3.0961 2.29092 3.02777C2.26261 2.95943 2.24805 2.8862 2.24805 2.81223C2.24805 2.73827 2.26261 2.66503 2.29092 2.5967C2.31922 2.52837 2.36071 2.46628 2.41301 2.41398C2.46531 2.36168 2.52739 2.3202 2.59573 2.2919C2.66406 2.26359 2.7373 2.24902 2.81126 2.24902C2.88522 2.24902 2.95846 2.26359 3.02679 2.2919C3.09512 2.3202 3.15721 2.36168 3.20951 2.41398L8.99876 8.20436L14.788 2.41398C14.8403 2.36168 14.9024 2.3202 14.9707 2.2919C15.0391 2.26359 15.1123 2.24902 15.1863 2.24902C15.2602 2.24902 15.3335 2.26359 15.4018 2.2919C15.4701 2.3202 15.5322 2.36168 15.5845 2.41398C15.6368 2.46628 15.6783 2.52837 15.7066 2.5967C15.7349 2.66503 15.7495 2.73827 15.7495 2.81223C15.7495 2.8862 15.7349 2.95943 15.7066 3.02777C15.6783 3.0961 15.6368 3.15818 15.5845 3.21048L9.79413 8.99973L15.5845 14.789C15.6368 14.8413 15.6783 14.9034 15.7066 14.9717C15.7349 15.04 15.7495 15.1133 15.7495 15.1872C15.7495 15.2612 15.7349 15.3344 15.7066 15.4028C15.6783 15.4711 15.6368 15.5332 15.5845 15.5855C15.5322 15.6378 15.4701 15.6793 15.4018 15.7076C15.3335 15.7359 15.2602 15.7504 15.1863 15.7504C15.1123 15.7504 15.0391 15.7359 14.9707 15.7076C14.9024 15.6793 14.8403 15.6378 14.788 15.5855L8.99876 9.79511L3.20951 15.5855C3.15721 15.6378 3.09512 15.6793 3.02679 15.7076C2.95846 15.7359 2.88522 15.7504 2.81126 15.7504C2.7373 15.7504 2.66406 15.7359 2.59573 15.7076C2.52739 15.6793 2.46531 15.6378 2.41301 15.5855C2.36071 15.5332 2.31922 15.4711 2.29092 15.4028C2.26261 15.3344 2.24805 15.2612 2.24805 15.1872C2.24805 15.1133 2.26261 15.04 2.29092 14.9717C2.31922 14.9034 2.36071 14.8413 2.41301 14.789L8.20338 8.99973L2.41301 3.21048Z" fill=""/>
</svg>
