<svg width="20" height="21" viewBox="0 0 20 21" fill="" xmlns="http://www.w3.org/2000/svg">
<path d="M0.112765 1.36096L0.958504 0.4811C1.03368 0.402891 1.14138 0.431299 1.28159 0.566324L19.7897 18.3897C19.9299 18.5247 19.9624 18.6313 19.8872 18.7095L19.0415 19.5894C18.9663 19.6676 18.8586 19.6392 18.7184 19.5042L0.210319 1.68081C0.0701064 1.54578 0.0375884 1.43917 0.112765 1.36096Z" fill=""/>
<path d="M0.551606 18.7509L18.3397 0.24524C18.4808 0.0983689 18.5905 0.0625578 18.6686 0.137804L19.5477 0.984326C19.6258 1.05957 19.5943 1.17063 19.4531 1.3175L1.66506 19.8231C1.52389 19.97 1.41423 20.0058 1.33609 19.9306L0.45705 19.0841C0.378912 19.0088 0.410431 18.8978 0.551606 18.7509Z" fill=""/>
</svg>
