<svg width="17" height="32" viewBox="0 0 17 32" fill="" xmlns="http://www.w3.org/2000/svg">
<path d="M15.1189 0.283747H10.4601C4.52658 0.224373 3.76873 3.89682 3.76873 7.87137V10.7615H1.14946C1.03108 10.7457 0.910638 10.7574 0.797502 10.7956C0.684367 10.8339 0.58158 10.8978 0.497124 10.9822C0.412669 11.0667 0.348819 11.1695 0.310534 11.2826C0.272249 11.3958 0.260559 11.5162 0.276372 11.6346V16.8735C0.260559 16.9919 0.272249 17.1123 0.310534 17.2255C0.348819 17.3386 0.412669 17.4414 0.497124 17.5259C0.58158 17.6103 0.684367 17.6742 0.797502 17.7125C0.910638 17.7508 1.03108 17.7625 1.14946 17.7466H3.76873V30.8438C3.75418 30.9624 3.76693 31.0828 3.80601 31.1957C3.84508 31.3086 3.90945 31.4111 3.9942 31.4954C4.07894 31.5796 4.18182 31.6434 4.29497 31.6818C4.40812 31.7202 4.52855 31.7322 4.64706 31.7169H9.98164C10.4968 31.7763 10.9141 31.359 10.75 30.8438L10.7535 17.7466H15.1189C15.2373 17.7625 15.3577 17.7508 15.4709 17.7125C15.584 17.6742 15.6868 17.6103 15.7712 17.5259C15.8557 17.4414 15.9195 17.3386 15.9578 17.2255C15.9961 17.1123 16.0078 16.9919 15.992 16.8735V11.6346C16.0078 11.5162 15.9961 11.3958 15.9578 11.2826C15.9195 11.1695 15.8557 11.0667 15.7712 10.9822C15.6868 10.8978 15.584 10.8339 15.4709 10.7956C15.3577 10.7574 15.2373 10.7457 15.1189 10.7615H10.7482L10.7535 8.14205C10.9228 7.02617 10.9228 7.20778 11.9583 7.2689H15.0822C15.325 7.21477 15.5834 7.24446 15.765 7.06808C15.9466 6.8917 16.0514 6.65072 15.9902 6.39576V1.15689C16.0064 1.03859 15.9949 0.918171 15.9569 0.80501C15.9188 0.691849 15.8551 0.589007 15.7708 0.5045C15.6865 0.419994 15.5838 0.356104 15.4707 0.317813C15.3576 0.279523 15.2372 0.267864 15.1189 0.283747V0.283747ZM14.1847 5.42482L11.995 5.341C9.28317 5.341 9.05617 6.81312 9.05617 8.32017L9.04918 11.6311C9.04895 11.7537 9.0729 11.8752 9.11966 11.9885C9.16642 12.1019 9.23507 12.2049 9.32168 12.2917C9.40829 12.3784 9.51116 12.4473 9.6244 12.4942C9.73765 12.5412 9.85904 12.5654 9.98164 12.5654H14.2458V15.9392H9.98513C9.73767 15.9392 9.50031 16.0374 9.32517 16.2122C9.15002 16.3871 9.05139 16.6243 9.05093 16.8717L9.04918 29.9707H5.51491V16.8735C5.51491 16.3583 5.16393 15.941 4.64706 15.941H2.02255V12.5671H4.64706C4.76958 12.5673 4.89094 12.5434 5.0042 12.4966C5.11745 12.4499 5.22039 12.3813 5.30712 12.2947C5.48174 12.1183 5.51317 11.8809 5.51317 11.6329V7.86963C5.51317 3.95445 6.30419 2.08941 10.4583 2.08941H14.183V5.42482H14.1847Z" fill=""/>
</svg>
