<svg width="656" height="481" viewBox="0 0 656 481" fill="none" xmlns="http://www.w3.org/2000/svg">
<g opacity="0.1">
<path d="M600.671 800C600.671 800 557.916 768.401 547.285 751.209C536.655 734.017 538.258 714.62 516.1 706.278C493.919 697.959 484.116 696.163 479.154 680.57C479.154 680.57 505.529 675.71 497.157 662.105C488.786 648.5 389.607 563.812 389.607 563.812C389.607 563.812 402.635 563.766 406.46 561.307C410.285 558.849 350.008 509.714 350.008 509.714L388.332 504.448L375.357 492.591L402.88 498.36C402.88 498.36 298.933 452.605 262.202 445.895C225.47 439.186 198.064 402.185 173.611 393.267C149.135 384.329 54.3092 354.385 0 337.565C0 337.565 62.5985 381.345 61.7839 394.031C61.7839 394.031 129.691 453.094 114.309 465.897C114.309 465.897 155.39 512.44 180.67 526.545C189.081 531.233 191.125 526.163 206.075 553.748C221.001 581.358 248.56 584.16 248.56 584.16L266.464 603.523L282.931 605.142C282.931 605.142 291.154 646.994 337.79 668.71C384.427 690.426 394.381 689.093 396.663 692.655C398.945 696.218 385.798 723.017 420.255 724.648C454.734 726.299 482.929 756.544 482.929 756.544L487.466 769.644C487.466 769.644 532.639 769.161 554.045 781.248C575.427 793.358 600.671 800 600.671 800Z" fill="url(#paint0_linear_738_219)"/>
<path d="M9.3291 1.89893C9.3291 1.89893 35.5751 18.7558 48.8958 35.4067C54.9334 42.9538 76.8901 55.5388 85.0591 72.4611C93.228 89.3834 128.475 98.4428 144.326 117.485C160.178 136.527 178.328 172.872 194.166 186.243C210.004 199.615 213.155 203.058 224.286 227.345C235.417 251.632 245.804 251.831 251.281 276.345C256.759 300.858 335.894 345.031 353.991 358.692C372.088 372.353 366.691 381.865 392.05 411.199C417.41 440.532 492.921 479.704 511.937 500.286C530.953 520.868 523.717 516.538 550.903 554.043C578.088 591.547 648.635 632.35 648.635 632.35C648.635 632.35 613.201 543.897 599.608 525.145C586.016 506.393 564.781 502.533 563.848 489.941C562.915 477.349 560.143 450.915 560.143 450.915C560.143 450.915 529.293 391.397 493.992 359.654C458.692 327.911 448.318 333.383 448.318 333.383C448.318 333.383 460.437 298.27 439.595 277.09C418.78 255.892 381.221 223.859 373.578 238.751C373.578 238.751 351.33 188.274 316.07 173.544C280.81 158.814 286.733 181.117 286.733 181.117C286.733 181.117 258.182 138.902 219.73 111.29C181.278 83.6772 155.066 75.7775 136.063 60.8662C117.061 45.9548 9.3291 1.89893 9.3291 1.89893Z" fill="url(#paint1_linear_738_219)"/>
<path d="M344.74 0C344.74 0 394.789 47.3757 400.809 71.0856C406.828 94.7954 449.611 122.91 449.611 122.91C449.611 122.91 513.995 158.828 527.378 175.495C540.745 192.136 568.607 240.615 599.63 244.959C599.63 244.959 606.552 290.093 644.519 323.064C644.519 323.064 662.448 374.116 687.086 397.13C711.724 420.145 714.669 421.96 727.826 444.854C740.983 467.747 743.584 495.436 768.845 516.226C794.106 537.016 846.8 579.066 846.8 579.066C846.8 579.066 806.104 498.328 787.98 476.721C769.857 455.114 776.887 417.711 762.333 395.696C747.778 373.68 707.662 323.733 707.662 323.733C707.662 323.733 749.069 336.217 728.774 314.141C708.479 292.064 665.718 247.443 644.176 229.815C622.634 212.187 603.608 169.155 593.547 151.648C583.486 134.142 499.505 78.7509 479.517 56.4815C459.53 34.2122 353.796 2.19844 344.74 0Z" fill="url(#paint2_linear_738_219)"/>
</g>
<defs>
<linearGradient id="paint0_linear_738_219" x1="300.336" y1="337.565" x2="300.336" y2="800" gradientUnits="userSpaceOnUse">
<stop stop-color="#EEEEEE"/>
<stop offset="1" stop-color="#EEEEEE" stop-opacity="0"/>
</linearGradient>
<linearGradient id="paint1_linear_738_219" x1="328.982" y1="1.89893" x2="328.982" y2="632.35" gradientUnits="userSpaceOnUse">
<stop stop-color="#EEEEEE"/>
<stop offset="1" stop-color="#EEEEEE" stop-opacity="0"/>
</linearGradient>
<linearGradient id="paint2_linear_738_219" x1="595.77" y1="0" x2="595.77" y2="579.066" gradientUnits="userSpaceOnUse">
<stop stop-color="#EEEEEE"/>
<stop offset="1" stop-color="#EEEEEE" stop-opacity="0"/>
</linearGradient>
</defs>
</svg>
