<svg width="26" height="26" viewBox="0 0 26 26" fill="" xmlns="http://www.w3.org/2000/svg">
<path d="M13.0004 7.26258C11.8656 7.26258 10.7562 7.5991 9.81264 8.22958C8.86906 8.86006 8.13363 9.75618 7.69935 10.8046C7.26507 11.8531 7.15144 13.0068 7.37283 14.1198C7.59423 15.2328 8.1407 16.2552 8.94315 17.0576C9.74559 17.8601 10.768 18.4066 11.881 18.6279C12.994 18.8493 14.1477 18.7357 15.1962 18.3014C16.2446 17.8672 17.1407 17.1317 17.7712 16.1881C18.4017 15.2446 18.7382 14.1352 18.7382 13.0004C18.7365 11.4792 18.1314 10.0207 17.0557 8.94504C15.9801 7.86937 14.5216 7.2643 13.0004 7.26258ZM13.0004 17.2414C12.1616 17.2414 11.3417 16.9926 10.6442 16.5266C9.9468 16.0606 9.40322 15.3983 9.08223 14.6233C8.76124 13.8484 8.67725 12.9957 8.84089 12.173C9.00453 11.3503 9.40845 10.5947 10.0016 10.0016C10.5947 9.40845 11.3503 9.00453 12.173 8.84089C12.9957 8.67725 13.8484 8.76124 14.6233 9.08223C15.3983 9.40322 16.0606 9.9468 16.5266 10.6442C16.9926 11.3417 17.2414 12.1616 17.2414 13.0004C17.2401 14.1248 16.7929 15.2027 15.9978 15.9978C15.2027 16.7929 14.1248 17.2401 13.0004 17.2414ZM18.4887 0.776367H7.51205C5.72627 0.778414 4.01421 1.48872 2.75146 2.75146C1.48872 4.01421 0.778414 5.72627 0.776367 7.51205V18.4887C0.778414 20.2745 1.48872 21.9866 2.75146 23.2493C4.01421 24.5121 5.72627 25.2224 7.51205 25.2244H18.4887C20.2745 25.2224 21.9866 24.5121 23.2493 23.2493C24.5121 21.9866 25.2224 20.2745 25.2244 18.4887V7.51205C25.2224 5.72627 24.5121 4.01421 23.2493 2.75146C21.9866 1.48872 20.2745 0.778414 18.4887 0.776367ZM23.7276 18.4887C23.726 19.8777 23.1736 21.2093 22.1915 22.1915C21.2093 23.1736 19.8777 23.726 18.4887 23.7276H7.51205C6.1231 23.726 4.79147 23.1736 3.80933 22.1915C2.82719 21.2093 2.27474 19.8777 2.27319 18.4887V7.51205C2.27474 6.1231 2.82719 4.79147 3.80933 3.80933C4.79147 2.82719 6.1231 2.27474 7.51205 2.27319H18.4887C19.8777 2.27474 21.2093 2.82719 22.1915 3.80933C23.1736 4.79147 23.726 6.1231 23.7276 7.51205V18.4887ZM20.734 6.51417C20.734 6.76088 20.6608 7.00204 20.5237 7.20716C20.3867 7.41229 20.1919 7.57216 19.9639 7.66657C19.736 7.76098 19.4852 7.78568 19.2433 7.73756C19.0013 7.68943 18.779 7.57063 18.6046 7.39618C18.4302 7.22174 18.3114 6.99948 18.2632 6.75752C18.2151 6.51556 18.2398 6.26476 18.3342 6.03683C18.4286 5.80891 18.5885 5.6141 18.7936 5.47704C18.9987 5.33998 19.2399 5.26682 19.4866 5.26682C19.8173 5.26722 20.1343 5.39876 20.3682 5.6326C20.602 5.86644 20.7336 6.18348 20.734 6.51417Z" fill=""/>
</svg>
