<svg width="158" height="35" viewBox="0 0 158 35" fill="none" xmlns="http://www.w3.org/2000/svg">
<path fill-rule="evenodd" clip-rule="evenodd" d="M49.2188 0V35H62.191V0H49.2188Z" fill="#AC8B65"/>
<path fill-rule="evenodd" clip-rule="evenodd" d="M17.2549 10.6083V35H30.2272V10.6083H47.4821V0H0V10.6083H17.2549Z" fill="#AC8B65"/>
<path d="M103.942 35L122.367 17.3192L104.352 0H121.871L131.395 9.46227L140.558 0H157.514L144.535 12.4405C143.616 11.7412 142.77 11.0808 142.395 10.6635C141.437 9.59863 136.371 8.06777 135.937 7.96265C135.937 7.96265 138.335 10.2281 138.624 11.3619C138.912 12.4956 140.962 13.84 140.962 13.84C140.962 13.84 141.555 14.17 142.275 14.6078L139.537 17.2322L158 35H149.138C148.758 34.1605 148.385 33.399 148.149 33.0744C147.842 32.6521 147.455 32.3877 147.125 32.1634C146.755 31.9112 146.459 31.7096 146.436 31.391C146.391 30.7888 146.258 29.5248 146.258 29.5248C146.258 29.5248 144.78 26.6787 143.089 25.1608C141.397 23.6429 140.9 23.9045 140.9 23.9045C140.9 23.9045 141.481 22.2255 140.482 21.2127C139.485 20.199 137.685 18.6672 137.319 19.3794C137.319 19.3794 136.253 16.9656 134.563 16.2612C132.874 15.5569 133.158 16.6234 133.158 16.6234C133.158 16.6234 131.79 14.6047 129.947 13.2843C128.934 12.5577 128.097 12.1166 127.398 11.7479C126.827 11.4466 126.348 11.1938 125.939 10.8731C125.028 10.1601 119.866 8.05339 119.866 8.05339C119.866 8.05339 121.124 8.85946 121.762 9.65569C121.859 9.77715 122.043 9.92591 122.259 10.1007C122.685 10.4452 123.235 10.8907 123.495 11.4276C123.7 11.8528 124.264 12.1743 124.864 12.5157C125.404 12.824 125.974 13.1485 126.334 13.5806C126.649 13.9581 126.983 14.4778 127.32 15.0026C127.796 15.7434 128.278 16.4942 128.722 16.8685C129.481 17.5079 129.632 17.6726 130.166 18.8339C130.395 19.3335 130.618 19.62 130.818 19.8775C131.084 20.2186 131.31 20.5091 131.459 21.177C131.659 22.0699 133.906 23.508 135.349 24.4315C135.801 24.7205 136.174 24.9591 136.38 25.1148C136.824 25.4492 136.973 25.7315 137.176 26.1156C137.369 26.482 137.611 26.9408 138.204 27.6256C138.879 28.4051 140.297 29.33 141.579 30.1668C142.605 30.8357 143.544 31.4484 143.948 31.8856C144.468 32.4468 144.579 32.6207 144.819 32.999C145 33.2841 145.256 33.6854 145.815 34.4562C145.946 34.6366 146.098 34.8186 146.266 35H138.177C138.119 34.9503 138.087 34.9234 138.087 34.9234C138.087 34.9234 138.711 34.9212 138.894 34.8036C139.078 34.6861 136.19 32.3365 136.19 32.3365L138.026 32.0847L137.404 31.5177L138.723 31.7935C138.723 31.7935 133.742 29.6056 131.982 29.2848C130.937 29.0942 130.049 28.3923 129.255 27.7646C128.712 27.3356 128.213 26.9413 127.738 26.7682C126.565 26.3407 122.021 24.9089 119.419 24.1045C119.419 24.1045 122.418 26.1981 122.379 26.8047C122.379 26.8047 125.633 29.629 124.896 30.2412C124.896 30.2412 126.865 32.4668 128.076 33.1414C128.16 33.1883 128.231 33.2148 128.298 33.2395C128.547 33.3325 128.727 33.3995 129.293 34.4422C129.41 34.6584 129.544 34.8428 129.685 35H103.942Z" fill="#AC8B65"/>
<path fill-rule="evenodd" clip-rule="evenodd" d="M63.9316 0H94.6219C99.0855 0 102.73 0.990302 105.351 3.17427C107.988 5.35705 109.274 8.36014 109.274 12.0147C109.274 15.2017 108.2 17.9294 106.03 20.0953L106.028 20.0972L106.026 20.0992C104.455 21.6546 102.457 22.7161 100.09 23.3298L113.127 35H95.6354L84.6202 24.8611H76.9039V35H63.9316V0ZM78.1687 10.538C77.8363 10.6267 77.6565 10.7108 77.3492 10.9066H76.9497V13.9226H77.3492C77.6565 14.1185 77.8363 14.2026 78.1687 14.2912H89.7542C90.2169 14.2069 90.5878 14.1243 90.9183 14.0507C91.1346 14.0026 91.2894 13.9583 91.4237 13.9199C91.7363 13.8305 91.9373 13.7729 92.543 13.7729C95.7758 13.6031 97.8133 12.915 98.7912 12.4146C97.8133 11.9142 95.7758 11.2261 92.543 11.0563C91.9373 11.0563 91.7363 10.9988 91.4237 10.9093C91.2894 10.8709 91.1346 10.8266 90.9183 10.7785C90.5878 10.7049 90.2169 10.6223 89.7542 10.538H78.1687Z" fill="#AC8B65"/>
</svg>
