<svg xmlns="http://www.w3.org/2000/svg" viewBox="0 0 142.77 113.39">
    <defs>
        <style>.cls-1{fill:#fff;}</style>
    </defs>
    <title>тирекс</title>
    <g id="Слой_2" data-name="Слой 2">
        <g id="Слой_1-2" data-name="Слой 1">
            <polygon class="cls-1" points="85.59 15.3 77.31 15.28 77.31 17.98 85.59 17.98 85.59 15.3"/>
            <rect class="cls-1" x="107.94" y="16.78" width="2.15" height="3.02"/>
            <path class="cls-1"
                  d="M78,32.85h2.38a9.78,9.78,0,0,1-1.13-2.45h0A5.75,5.75,0,0,1,79,28H77A2.46,2.46,0,0,0,76,29c.07.46.16.94.27,1.39h0c.32,1.26.86,2.33,1.76,2.44"/>
            <path class="cls-1"
                  d="M105.27,14.8h-3.84v.55l-4.66,0c-.15-.18-.32-.36-.49-.53a5.92,5.92,0,0,0-1.22-.94l-1.18-.69-2.38-1.4L82,6.2,77.24,3.43,74.86,2l-1.19-.69L73.07,1l-.3-.17L72.42.65a6.44,6.44,0,0,0-6,.21L61.62,3.63l-9.49,5.6L47.39,12,45,13.43l-.59.35-.3.18-.32.21a5.9,5.9,0,0,0-1.12,1,6.1,6.1,0,0,0-1.36,2.65,5.65,5.65,0,0,0-.17,1.48l0,1.38,0,1.54c-2.78.2-5.57.46-8.35.86,2.79.4,5.58.66,8.38.85l0,2.25c.09,3.68.15,7.35.27,11h.16c.12-3.67.18-7.34.27-11L42,24l2.56.15q4.41.22,8.82.27a.49.49,0,0,0,.17,0H54a8,8,0,0,1,1.76.63H97v.77H66.16c-1.75,0-3.5-.07-5.25-.07q-4.17,0-8.34.18c-2.78.11-5.56.28-8.34.6,2.78.32,5.56.48,8.34.6,2.06.08,4.11.14,6.17.16a3,3,0,0,1,.33.58l-7.73.81,7.94.83a4.21,4.21,0,0,1-.21.85v.05h0c-.12.34-1,2.68-2,4.9L46.8,36.39l8.23.86a13.44,13.44,0,0,1-.81,1.37l-5.19,0c-1.82,0-3.64.06-5.46.13-3.64.11-7.29.28-10.93.6,3.64.32,7.29.49,10.93.6,1.82.08,3.64.09,5.46.13l5.47.05h1.11a24.47,24.47,0,0,0-2.77,5.9c-2,0-4,.12-5.94.23-3.64.21-7.28.5-10.92,1.06,3.64.56,7.28.85,10.92,1.06,2.54.14,5.07.22,7.6.26,0,.32,0,.63,0,.94l3.38,2.88H68.51s1.61-.83,1.55-3.44a5.46,5.46,0,0,1,.06-.72c3.19-.2,6.38-.48,9.57-1-3.64-.56-7.29-.86-10.93-1.06l-.37,0a50.51,50.51,0,0,1,2.36-6.49c1.87-.1,3.74-.22,5.6-.39-2.57-.22-5.14-.37-7.71-.48.32-.69.64-1.33,1-1.91h1.14a7.2,7.2,0,0,1,2.11-2.7A9.82,9.82,0,0,0,76.58,36h8.91s0-1,.13-2.35h0c.07-1,.17-2.17.3-3.23H83.49c-.1,1.15-.18,2.43-.22,3.23H76.33A17.1,17.1,0,0,1,73,31.93a9.29,9.29,0,0,1,.22-1.52h0a3.9,3.9,0,0,1,2.18-3h8.5c-.13.74-.24,1.65-.35,2.76,0,.08,0,.16,0,.24h2.43c.2-1.57.47-2.89.84-3H97L97,42.34v2.75a5.21,5.21,0,0,1-.59,2.42,5.09,5.09,0,0,1-1.67,1.87c-.33.22-.76.46-1.15.69l-1.19.7-9.51,5.55-9.5,5.58-1.19.7a5.55,5.55,0,0,1-1.2.51,5.31,5.31,0,0,1-3.82-.31c-.39-.19-.8-.44-1.19-.66l-2.4-1.36L44.49,49.9l-.08.13,19,11.15,2.38,1.4c.4.23.77.47,1.21.69a6.38,6.38,0,0,0,1.35.48,6,6,0,0,0,2.86-.08,6.29,6.29,0,0,0,1.34-.55l1.2-.69L83.33,57l9.56-5.45,1.2-.69c.41-.23.78-.43,1.22-.71a6.15,6.15,0,0,0,2.72-5V42.34l.08-14.93h5.78a2.11,2.11,0,0,0,.66-.1h0a2.16,2.16,0,0,0,1.4-1.49H98.13v-.77h6.68a2.12,2.12,0,0,0,.08-.57V21.85H98.15V21l9.27-.05V15.36h-1.7Zm-8.34,7.05H64c-2.55-.08-5.1-.13-7.65-.13q-5.87,0-11.73.3l-2.53.15,0-1.49,0-1.38a5.16,5.16,0,0,1,.18-1.24,5.08,5.08,0,0,1,1.21-2.16,4.86,4.86,0,0,1,.95-.8l.27-.16.29-.16.61-.34L48,13.09l4.79-2.71L62.4,5l4.77-2.74a4.84,4.84,0,0,1,4.54-.14l9.52,5.44L90.81,13l2.39,1.36,1.2.68.48.32-8.64,0v3.34H76.66V15.28l-14.9,0-.28-1.65H59.69l-.29,1.64H56.58c-1.4,0-2.81.07-4.21.15a53.32,53.32,0,0,0-5.46.61,53.32,53.32,0,0,0,5.46.61c1.22.07,2.43.12,3.65.14v1.5a5.19,5.19,0,0,1-.53,2.42l11.41.54,30-.17ZM65.88,17.8v.35l-.86,2h0V18l.1-.23Zm-1.78,0v.35l-.86,2h0V18l.1-.23Zm-1.78,0v.35l-.86,2h0V18l.1-.23Zm-1.78,0v.35l-.86,2h0V18l.1-.23Zm-1.78,0v.35l-.86,2L58,17.8Z"/>
            <polygon class="cls-1"
                     points="0 74.61 12.71 74.61 12.71 76.23 1.82 76.23 1.82 83.82 10.72 83.82 10.72 85.41 1.82 85.41 1.82 95.25 0 95.25 0 74.61"/>
            <rect class="cls-1" x="20.3" y="74.61" width="1.82" height="20.65"/>
            <polygon class="cls-1"
                     points="53.34 74.61 66.23 74.61 66.23 76.23 55.17 76.23 55.17 83.76 64.32 83.76 64.32 85.35 55.17 85.35 55.17 93.63 66.29 93.63 66.29 95.25 53.34 95.25 53.34 74.61"/>
            <polygon class="cls-1"
                     points="74.63 74.58 76.45 74.58 76.45 93.63 87.34 93.63 87.34 95.26 74.63 95.26 74.63 74.58"/>
            <rect class="cls-1" x="95.04" y="74.61" width="1.82" height="20.65"/>
            <polygon class="cls-1"
                     points="105.9 74.58 107.78 74.58 118.99 92.07 119.05 92.07 119.05 74.58 120.78 74.58 120.78 95.26 118.99 95.26 107.67 77.5 107.61 77.5 107.61 95.26 105.9 95.26 105.9 74.58"/>
            <polygon class="cls-1"
                     points="129.79 74.61 142.68 74.61 142.68 76.23 131.62 76.23 131.62 83.76 140.77 83.76 140.77 85.35 131.62 85.35 131.62 93.63 142.74 93.63 142.74 95.25 129.79 95.25 129.79 74.61"/>
            <path class="cls-1"
                  d="M39.5,86.6a5.75,5.75,0,0,0,5.36-6c0-3.79-2.7-6-6.66-6h-7V95.26H33V76.14h4.64C41,76.14,43,77.62,43,80.6c0,3.16-1.94,4.61-5.38,4.61h-.1v1.53h0l6.14,8.52h2.08Z"/>
            <path class="cls-1"
                  d="M4.21,113.39a4,4,0,0,1-1.64-.32,3.22,3.22,0,0,1-1.16-.89,3.74,3.74,0,0,1-.69-1.33,5.48,5.48,0,0,1-.24-1.65,5.58,5.58,0,0,1,.25-1.65,4.19,4.19,0,0,1,.73-1.35,3.44,3.44,0,0,1,1.19-.9A3.71,3.71,0,0,1,4.3,105a4.17,4.17,0,0,1,1.19.17,3.18,3.18,0,0,1,1,.5,2.89,2.89,0,0,1,.73.82,3,3,0,0,1,.38,1.13H6.54a2,2,0,0,0-.79-1.29,2.54,2.54,0,0,0-1.46-.43,2.5,2.5,0,0,0-1.24.28,2.57,2.57,0,0,0-.85.72,3.38,3.38,0,0,0-.49,1,4.83,4.83,0,0,0-.15,1.21,5.53,5.53,0,0,0,.15,1.31,3.28,3.28,0,0,0,.49,1.07,2.54,2.54,0,0,0,2.1,1,2.34,2.34,0,0,0,.93-.18,2.27,2.27,0,0,0,.72-.48,2.46,2.46,0,0,0,.47-.74,3.15,3.15,0,0,0,.2-.93H7.69a3.66,3.66,0,0,1-1,2.38A3.41,3.41,0,0,1,4.21,113.39Z"/>
            <path class="cls-1" d="M13.1,106.06H10.42v-.91h6.44v.91H14.17v7.15H13.1Z"/>
            <path class="cls-1"
                  d="M20,105.15h3.53a2.48,2.48,0,0,1,1.85.63,2.79,2.79,0,0,1,0,3.51,2.52,2.52,0,0,1-1.85.62H21.08v3.3H20ZM23.17,109a1.93,1.93,0,0,0,1.34-.38,1.4,1.4,0,0,0,.42-1.1,1.42,1.42,0,0,0-.42-1.1,2,2,0,0,0-1.34-.37H21.08v3Z"/>
            <path class="cls-1" d="M29.57,105.15h5.56v.91H30.64v2.56h4.18v.9H30.64v2.78h4.52v.91H29.57Z"/>
            <path class="cls-1"
                  d="M38.6,113.32l-.36,0a1.3,1.3,0,0,1-.29-.08v-1a1.65,1.65,0,0,0,.46.06.86.86,0,0,0,.79-.52,4.45,4.45,0,0,0,.43-1.47,19.62,19.62,0,0,0,.16-2.26c0-.88,0-1.84,0-2.9h5.05v8.06H43.81v-7.15H40.88c0,.64,0,1.26,0,1.86s-.05,1.18-.1,1.72a14.53,14.53,0,0,1-.22,1.48,4.86,4.86,0,0,1-.4,1.17,2.05,2.05,0,0,1-.62.76A1.5,1.5,0,0,1,38.6,113.32Z"/>
            <path class="cls-1"
                  d="M48.89,105.15H50v3.91l4.08-3.91h1.39l-3.84,3.59,4,4.47H54.22l-3.43-3.82-.82.77v3H48.89Z"/>
            <path class="cls-1"
                  d="M62.08,113.39A3.85,3.85,0,0,1,60.4,113a3.5,3.5,0,0,1-1.21-.93,4.05,4.05,0,0,1-.73-1.34,5.35,5.35,0,0,1,0-3.17,4,4,0,0,1,.73-1.35,3.65,3.65,0,0,1,1.21-.94,4.21,4.21,0,0,1,3.36,0,3.61,3.61,0,0,1,1.2.94,3.84,3.84,0,0,1,.73,1.35,5.35,5.35,0,0,1,0,3.17,3.88,3.88,0,0,1-.73,1.34,3.46,3.46,0,0,1-1.2.93A3.85,3.85,0,0,1,62.08,113.39Zm0-.89a2.61,2.61,0,0,0,1.26-.29,2.66,2.66,0,0,0,.87-.76,3.27,3.27,0,0,0,.49-1.07,4.58,4.58,0,0,0,0-2.4,3.27,3.27,0,0,0-.49-1.07,2.66,2.66,0,0,0-.87-.76,2.61,2.61,0,0,0-1.26-.29,2.68,2.68,0,0,0-1.27.29,2.53,2.53,0,0,0-.86.76,3.09,3.09,0,0,0-.5,1.07,4.58,4.58,0,0,0,0,2.4,3.09,3.09,0,0,0,.5,1.07,2.53,2.53,0,0,0,.86.76A2.68,2.68,0,0,0,62.08,112.5Z"/>
            <path class="cls-1"
                  d="M69.5,105.15H73c.2,0,.39,0,.59,0a4.51,4.51,0,0,1,.55.09,1.21,1.21,0,0,1,.43.17,2.07,2.07,0,0,1,.67.65,1.86,1.86,0,0,1,.28,1,2,2,0,0,1-.31,1.11,1.88,1.88,0,0,1-.89.69v0a1.89,1.89,0,0,1,1.14.68,2.05,2.05,0,0,1,.39,1.26,2.51,2.51,0,0,1-.15.86,2.28,2.28,0,0,1-.47.74,2.37,2.37,0,0,1-.77.52,2.62,2.62,0,0,1-1,.2H69.5Zm3.21,3.47a2,2,0,0,0,1.31-.33,1.14,1.14,0,0,0,.4-1,1.43,1.43,0,0,0-.13-.67.93.93,0,0,0-.37-.39,1.37,1.37,0,0,0-.55-.17,4.68,4.68,0,0,0-.66,0H70.57v2.56Zm.54,3.68a1.5,1.5,0,0,0,1.11-.38,1.6,1.6,0,0,0,.26-1.71,1.21,1.21,0,0,0-.39-.42,1.63,1.63,0,0,0-.56-.21,3.52,3.52,0,0,0-.66-.06H70.57v2.78Z"/>
            <path class="cls-1"
                  d="M79.48,105.15h1.07v3.29H83a2.51,2.51,0,0,1,1.83.61,2.77,2.77,0,0,1,0,3.54,2.52,2.52,0,0,1-1.83.62H79.48Zm3.11,7.15c1.17,0,1.76-.49,1.76-1.47s-.59-1.5-1.76-1.5h-2v3Zm3.89-7.15h1.07v8.06H86.48Z"/>
            <path class="cls-1"
                  d="M91.56,105.15h1.08V112l4-6.83H98v8.06H97v-6.85l-4.06,6.85H91.56Zm3.24-.53a2.45,2.45,0,0,1-1.46-.39,1.41,1.41,0,0,1-.59-1.16h1a.83.83,0,0,0,.32.62,1.18,1.18,0,0,0,.69.18,1.1,1.1,0,0,0,.73-.19.93.93,0,0,0,.29-.61h1a1.32,1.32,0,0,1-.15.62,1.36,1.36,0,0,1-.41.49,1.93,1.93,0,0,1-.64.33A3.09,3.09,0,0,1,94.8,104.62Z"/>
            <path class="cls-1"
                  d="M107.44,105.15h1.07v3.91l4.09-3.91H114l-3.83,3.59,4,4.47h-1.35l-3.43-3.82-.83.77v3h-1.07Z"/>
            <path class="cls-1"
                  d="M117.11,113.32l-.36,0a1.6,1.6,0,0,1-.3-.08v-1a1.78,1.78,0,0,0,.47.06.87.87,0,0,0,.79-.52,4.47,4.47,0,0,0,.42-1.47,19.4,19.4,0,0,0,.17-2.26c0-.88,0-1.84,0-2.9h5v8.06h-1.07v-7.15h-2.94c0,.64,0,1.26,0,1.86s-.06,1.18-.11,1.72a12.19,12.19,0,0,1-.22,1.48,4.86,4.86,0,0,1-.39,1.17,2.16,2.16,0,0,1-.62.76A1.5,1.5,0,0,1,117.11,113.32Z"/>
            <path class="cls-1"
                  d="M128.57,113.33a1.55,1.55,0,0,1-.37,0,1.41,1.41,0,0,1-.31-.1v-1a1.32,1.32,0,0,0,.3.1,1.18,1.18,0,0,0,.34,0,.91.91,0,0,0,.57-.21,1.73,1.73,0,0,0,.48-.64l.13-.29-3.18-6.09h1.17l2.58,5,2-5h1.14l-2.7,6.23a5.41,5.41,0,0,1-.49.94,2.75,2.75,0,0,1-.51.59,1.51,1.51,0,0,1-.54.32A1.74,1.74,0,0,1,128.57,113.33Z"/>
            <path class="cls-1"
                  d="M136.55,105.15h5.51v.91h-4.44v2.36h2.68a2.56,2.56,0,0,1,1.84.62,2.41,2.41,0,0,1,.63,1.79,2.35,2.35,0,0,1-.63,1.76,2.56,2.56,0,0,1-1.84.62h-3.75Zm3.4,7.15c1.18,0,1.76-.49,1.76-1.47s-.58-1.5-1.76-1.5h-2.33v3Z"/>
        </g>
    </g>
</svg>