<svg width="128" height="61" viewBox="0 0 128 61" fill="none" xmlns="http://www.w3.org/2000/svg">
<rect width="128" height="48.4847" fill="#AC8B65"/>
<path fill-rule="evenodd" clip-rule="evenodd" d="M44.7471 12.9292V35.5554H53.1332V12.9292H44.7471Z" fill="white"/>
<path fill-rule="evenodd" clip-rule="evenodd" d="M24.0838 19.7871V35.5554H32.4699V19.7871H43.6246V12.9292H12.9292V19.7871H24.0838Z" fill="white"/>
<path d="M80.1245 35.5554L92.0355 24.1254L80.3896 12.9292H91.7147L97.8714 19.0462L103.795 12.9292H114.756L106.366 20.9715C105.772 20.5194 105.225 20.0925 104.983 19.8228C104.364 19.1344 101.088 18.1447 100.808 18.0768C100.808 18.0768 102.358 19.5413 102.545 20.2742C102.731 21.0072 104.056 21.8763 104.056 21.8763C104.056 21.8763 104.439 22.0896 104.905 22.3726L103.135 24.0692L115.07 35.5554H109.342C109.096 35.0127 108.855 34.5204 108.703 34.3106C108.504 34.0376 108.253 33.8667 108.041 33.7216C107.801 33.5586 107.61 33.4282 107.595 33.2223C107.566 32.833 107.48 32.0159 107.48 32.0159C107.48 32.0159 106.525 30.176 105.431 29.1947C104.338 28.2134 104.016 28.3826 104.016 28.3826C104.016 28.3826 104.392 27.2971 103.746 26.6424C103.101 25.9871 101.938 24.9969 101.701 25.4572C101.701 25.4572 101.012 23.8968 99.9199 23.4415C98.8277 22.9861 99.0112 23.6756 99.0112 23.6756C99.0112 23.6756 98.1268 22.3706 96.9358 21.517C96.2804 21.0473 95.7397 20.7621 95.288 20.5238C94.9188 20.329 94.6089 20.1656 94.3442 19.9583C93.7556 19.4973 90.4186 18.1354 90.4186 18.1354C90.4186 18.1354 91.2316 18.6565 91.6442 19.1712C91.7071 19.2498 91.8259 19.3459 91.9655 19.4589C92.2406 19.6816 92.5965 19.9697 92.7643 20.3167C92.8973 20.5916 93.2619 20.7994 93.6493 21.0201C93.999 21.2194 94.3672 21.4292 94.6001 21.7085C94.8037 21.9526 95.0195 22.2886 95.2374 22.6278C95.545 23.1067 95.8567 23.5921 96.1439 23.8341C96.6345 24.2474 96.7321 24.3538 97.0769 25.1046C97.2252 25.4276 97.3693 25.6128 97.4988 25.7793C97.6703 25.9998 97.8164 26.1876 97.9131 26.6194C98.0423 27.1965 99.4951 28.1262 100.428 28.7232C100.72 28.9101 100.961 29.0643 101.095 29.165C101.381 29.3811 101.478 29.5637 101.609 29.812C101.734 30.0488 101.89 30.3455 102.273 30.7881C102.71 31.2921 103.626 31.8899 104.455 32.4309C105.118 32.8633 105.725 33.2594 105.987 33.5421C106.323 33.9049 106.394 34.0173 106.55 34.2618C106.667 34.4462 106.832 34.7056 107.194 35.2039C107.279 35.3205 107.377 35.4381 107.485 35.5554H102.256C102.218 35.5233 102.198 35.5059 102.198 35.5059C102.198 35.5059 102.601 35.5044 102.72 35.4284C102.838 35.3524 100.971 33.8335 100.971 33.8335L102.158 33.6708L101.756 33.3042L102.609 33.4825C102.609 33.4825 99.3891 32.0681 98.2513 31.8607C97.5754 31.7375 97.0014 31.2838 96.488 30.878C96.1372 30.6007 95.8147 30.3457 95.5072 30.2338C94.7491 29.9575 91.8119 29.0319 90.1296 28.5119C90.1296 28.5119 92.0686 29.8653 92.0434 30.2574C92.0434 30.2574 94.1468 32.0832 93.6704 32.479C93.6704 32.479 94.9428 33.9178 95.7259 34.3539C95.7805 34.3842 95.8264 34.4014 95.8692 34.4173C96.0305 34.4774 96.1468 34.5207 96.5128 35.1948C96.5885 35.3346 96.6747 35.4538 96.766 35.5554H80.1245Z" fill="white"/>
<path fill-rule="evenodd" clip-rule="evenodd" d="M54.2588 12.9292H74.0989C76.9844 12.9292 79.3405 13.5694 81.0347 14.9812C82.7397 16.3923 83.5708 18.3337 83.5708 20.6962C83.5708 22.7565 82.8768 24.5199 81.4739 25.9201L81.4726 25.9213L81.4713 25.9226C80.4557 26.9281 79.1641 27.6143 77.6338 28.0111L86.062 35.5554H74.7541L67.6332 29.001H62.6449V35.5554H54.2588V12.9292ZM63.4625 19.7416C63.2476 19.7989 63.1314 19.8533 62.9328 19.9799H62.6745V21.9297H62.9328C63.1314 22.0563 63.2476 22.1106 63.4625 22.168H70.9521C71.2512 22.1134 71.491 22.06 71.7046 22.0125C71.8445 21.9814 71.9446 21.9527 72.0314 21.9279C72.2334 21.8701 72.3634 21.8329 72.755 21.8329C74.8449 21.7231 76.162 21.2783 76.7942 20.9548C76.162 20.6313 74.8449 20.1864 72.755 20.0767C72.3634 20.0767 72.2334 20.0395 72.0314 19.9817C71.9446 19.9569 71.8445 19.9282 71.7046 19.8971C71.491 19.8495 71.2512 19.7961 70.9521 19.7416H63.4625Z" fill="white"/>
<path d="M63.5 61L71.7272 46.75H55.2728L63.5 61Z" fill="#AC8B65"/>
</svg>
