<svg width="23" height="19" viewBox="0 0 23 19" fill="none" xmlns="http://www.w3.org/2000/svg">
<path opacity="0.35" d="M21.9954 15.5138V15.0138H21.4954H5.05796C5.16122 14.4661 5.4388 13.9242 5.91764 13.3836C6.49085 12.7523 7.62558 12.2983 9.48185 12.14L9.51403 12.1373L9.54558 12.1304C9.8475 12.0648 10.4192 11.9935 11.2856 11.9201L11.2856 11.9202L11.2968 11.919C13.0819 11.7272 14.6517 11.4979 16.0044 11.2303L16.0044 11.2304L16.0085 11.2295C17.4116 10.9397 18.6723 10.4418 19.7846 9.73119C20.9703 8.9736 21.5994 7.90512 21.5994 6.55984C21.5994 5.42153 21.3235 4.43155 20.7406 3.62213C20.1583 2.81366 19.3 2.22735 18.2076 1.84228C16.1077 1.10204 13.7771 0.73584 11.2214 0.73584C9.82844 0.73584 8.38115 0.917534 6.88068 1.27765L6.88068 1.27764L6.87957 1.27791C5.35981 1.64634 4.03502 2.29461 2.91528 3.22773C1.73813 4.20869 1.15137 5.51902 1.15137 7.10984V7.60601L1.64752 7.60982L4.50752 7.63182L5.01137 7.6357V7.13184C5.01137 6.60933 5.14787 6.18111 5.40595 5.82445C5.66721 5.46337 6.07611 5.14421 6.6691 4.88421C7.90865 4.34727 9.43397 4.07555 11.2615 4.08982V4.08988L11.2691 4.08983C13.1808 4.07545 14.7686 4.30607 16.0466 4.76448L16.0465 4.7645L16.0511 4.76609C16.6757 4.98333 17.0967 5.25277 17.3589 5.54913C17.6121 5.8354 17.7394 6.17093 17.7394 6.58184C17.7394 6.9088 17.5909 7.19225 17.1571 7.44468C16.6585 7.71944 16.0244 7.9386 15.2432 8.09239C14.4381 8.23598 13.3154 8.38831 11.8702 8.5489L11.8701 8.54881L11.8607 8.55004C11.5261 8.59368 11.0516 8.65209 10.4363 8.72534L10.4348 8.72552C9.82974 8.79931 9.30881 8.8736 8.87349 8.94858C7.11493 9.22949 5.7185 9.56624 4.70211 9.96664C3.61981 10.393 2.75408 11.1621 2.10318 12.2417L2.10315 12.2417L2.1004 12.2463C1.44758 13.3561 1.15137 14.9279 1.15137 16.8998V17.9998V18.4998H1.65137H21.4954H21.9954V17.9998V15.5138Z" stroke="#EEEEEE"/>
</svg>
