<svg width="23" height="20" viewBox="0 0 23 20" fill="none" xmlns="http://www.w3.org/2000/svg">
<path opacity="0.35" d="M22.3713 12.6134V12.6098L22.3713 12.5658L22.3713 12.561C22.3632 11.7254 22.159 10.9831 21.7347 10.3595C21.4589 9.95425 21.1002 9.61402 20.668 9.3348C21.5216 8.57129 21.9313 7.46842 21.9313 6.09784C21.9313 4.5501 21.3565 3.32312 20.1781 2.49822C19.0812 1.73044 17.8107 1.24983 16.3776 1.04908C15.0008 0.839747 13.517 0.73584 11.9273 0.73584C9.29684 0.73584 6.87819 1.12446 4.67648 1.9085C3.54452 2.30679 2.65452 2.90147 2.04959 3.71499C1.44254 4.53137 1.15332 5.52689 1.15332 6.66984V7.16984H1.65332H4.49132H4.99132V6.66984C4.99132 6.25883 5.1245 5.92123 5.39585 5.6305C5.67785 5.32836 6.13136 5.0543 6.80252 4.83514L6.80252 4.83515L6.80543 4.83418C8.18906 4.37297 9.88969 4.14902 11.9198 4.17778C13.734 4.20661 15.25 4.42975 16.4788 4.83472C17.7074 5.23959 18.0713 5.75864 18.0713 6.27384C18.0713 6.73616 17.9233 7.01163 17.6797 7.19206L17.6797 7.192L17.6725 7.19753C17.3756 7.42588 16.9724 7.59109 16.4368 7.67025C15.8637 7.73977 15.1322 7.77584 14.2373 7.77584H9.04532H8.54532V8.27584V10.7838V11.2838H9.04532H13.1153C14.9011 11.2838 16.1726 11.3503 16.952 11.4755L16.952 11.4756L16.9606 11.4768C17.3533 11.5329 17.6536 11.6022 17.8718 11.679C18.0987 11.7589 18.1906 11.8311 18.2184 11.8627L18.2234 11.8683L18.2286 11.8738C18.3287 11.9806 18.4228 12.1868 18.4233 12.5847C18.4167 13.0839 18.2729 13.4953 18.0017 13.8415C17.725 14.1947 17.2926 14.509 16.6662 14.765L16.6644 14.7657C15.3934 15.2907 13.821 15.5562 11.9311 15.5419V15.5418H11.9273C9.91564 15.5418 8.23533 15.1995 6.86817 14.5372C6.21415 14.2098 5.75156 13.8068 5.45055 13.3399C5.15026 12.8742 4.99132 12.3148 4.99132 11.6418V11.1418H4.49132H1.65332H1.15332V11.6418C1.15332 13.1125 1.59102 14.4178 2.47016 15.5368C3.34673 16.6524 4.60498 17.4987 6.20923 18.0946L6.21067 18.0951C7.83415 18.6924 9.74345 18.9838 11.9273 18.9838C14.9227 18.9838 17.3996 18.5078 19.3272 17.5209C20.3104 17.0175 21.0744 16.3532 21.5921 15.519C22.1101 14.6845 22.3634 13.7095 22.3713 12.6134Z" stroke="#EEEEEE"/>
</svg>
