<svg width="15" height="9" viewBox="0 0 15 9" fill="none" xmlns="http://www.w3.org/2000/svg">
<path opacity="0.4" d="M0.293557 0.308982C0.200504 0.406273 0.126676 0.521851 0.0763025 0.649096C0.0259291 0.776342 0 0.912754 0 1.05052C0 1.18828 0.0259291 1.3247 0.0763025 1.45194C0.126676 1.57919 0.200504 1.69476 0.293557 1.79206L6.93634 8.75496C7.01029 8.83264 7.09813 8.89426 7.19483 8.93631C7.29154 8.97836 7.3952 9 7.49989 9C7.60459 9 7.70825 8.97836 7.80495 8.93631C7.90166 8.89426 7.9895 8.83264 8.06345 8.75496L14.7062 1.79206C15.0979 1.38149 15.0979 0.71955 14.7062 0.308982C14.3145 -0.101587 13.683 -0.101587 13.2913 0.308982L7.4959 6.37534L1.70045 0.300604C1.31675 -0.101586 0.677255 -0.101587 0.293557 0.308982Z" fill="white"/>
</svg>
