<svg width="31" height="26" viewBox="0 0 31 26" fill="" xmlns="http://www.w3.org/2000/svg">
<path d="M29.3934 3.33043C29.5875 2.97112 29.7474 2.59438 29.8711 2.20518C29.9284 2.02464 29.9295 1.83099 29.8744 1.64978C29.8193 1.46858 29.7106 1.30834 29.5625 1.19024C29.4145 1.07213 29.2341 1.0017 29.0451 0.988258C28.8562 0.974813 28.6677 1.01898 28.5044 1.11493C27.6077 1.64764 26.6369 2.04454 25.6239 2.29268C24.3941 1.18278 22.7969 0.567487 21.1404 0.56543C20.2404 0.566121 19.3498 0.748536 18.522 1.10174C17.6942 1.45494 16.9463 1.97165 16.323 2.6209C15.6997 3.27016 15.214 4.03857 14.8948 4.88009C14.5757 5.72161 14.4298 6.61891 14.4659 7.51818C10.5301 7.02272 6.9362 5.03116 4.42962 1.95668C4.33358 1.8402 4.21085 1.74863 4.07184 1.68973C3.93284 1.63084 3.78168 1.60637 3.63119 1.61839C3.48071 1.63042 3.33535 1.67859 3.20746 1.75881C3.07958 1.83903 2.97294 1.94893 2.89662 2.07918C2.32266 3.0643 2.01069 4.18006 1.99047 5.32001C1.97025 6.45996 2.24246 7.58607 2.78112 8.59093C2.64901 8.61322 2.52209 8.65948 2.40662 8.72743C2.26513 8.81766 2.14863 8.94206 2.06789 9.08918C1.98714 9.23629 1.94475 9.40137 1.94462 9.56918C1.94462 11.5554 2.82837 13.3789 4.25287 14.6179L4.19162 14.6792C4.08408 14.8008 4.01009 14.9484 3.97695 15.1074C3.94381 15.2663 3.95265 15.4312 4.00262 15.5857C4.29966 16.5123 4.79564 17.3629 5.45583 18.0778C6.11602 18.7927 6.92448 19.3547 7.82462 19.7244C5.9759 20.6263 3.907 20.978 1.86412 20.7377C1.65413 20.7163 1.44297 20.7651 1.26373 20.8766C1.08448 20.9881 0.947281 21.1559 0.87362 21.3537C0.802882 21.553 0.801554 21.7703 0.869852 21.9704C0.938149 22.1705 1.07206 22.3417 1.24987 22.4562C4.02714 24.2386 7.25806 25.1856 10.5581 25.1844C21.3731 25.1844 27.8376 16.3994 27.8376 7.90668L27.8359 7.61968C28.884 6.8014 29.7944 5.82067 30.5326 4.71468C30.6444 4.54748 30.6994 4.34873 30.6894 4.14785C30.6794 3.94697 30.605 3.75465 30.4772 3.59936C30.3494 3.44406 30.175 3.33405 29.9798 3.28562C29.7846 3.23718 29.579 3.25289 29.3934 3.33043ZM26.3396 6.40168C26.2126 6.493 26.1105 6.61467 26.0427 6.7556C25.9748 6.89653 25.9433 7.05221 25.9511 7.20843C25.9616 7.43943 25.9669 7.67393 25.9669 7.90493C25.9669 15.4789 20.2041 23.3137 10.5599 23.3137C8.8398 23.3145 7.13187 23.0258 5.50762 22.4597C7.45291 22.0869 9.28033 21.2527 10.8364 20.0272C10.9878 19.9078 11.0987 19.7445 11.1539 19.5596C11.209 19.3748 11.2057 19.1774 11.1444 18.9945C11.0831 18.8116 10.9669 18.6521 10.8115 18.5378C10.6561 18.4235 10.4692 18.36 10.2764 18.3559C9.52181 18.3415 8.78121 18.15 8.11428 17.7968C7.44735 17.4435 6.87277 16.9385 6.43687 16.3224C6.87962 16.2927 7.31362 16.2192 7.73537 16.1054C7.93949 16.0508 8.11907 15.9286 8.2448 15.7588C8.37054 15.589 8.43501 15.3815 8.4277 15.1704C8.42039 14.9592 8.34173 14.7567 8.20455 14.596C8.06738 14.4353 7.87978 14.3258 7.67237 14.2854C6.82016 14.1121 6.03111 13.7103 5.38964 13.1231C4.74817 12.5359 4.27841 11.7853 4.03062 10.9517C4.49612 11.0689 4.97387 11.1372 5.45162 11.1529C5.86287 11.1512 6.24437 10.8992 6.37212 10.5037C6.49987 10.1082 6.34937 9.67243 6.00112 9.44143C5.1777 8.89282 4.54369 8.1034 4.18569 7.18099C3.82769 6.25858 3.76314 5.24815 4.00087 4.28768C7.04068 7.40673 11.1453 9.26408 15.4949 9.48868C15.8029 9.49043 16.0724 9.38018 16.2596 9.15443C16.4469 8.92868 16.5186 8.62943 16.4521 8.34243C16.2128 7.31168 16.3198 6.23078 16.7567 5.267C17.1936 4.30322 17.936 3.5103 18.8689 3.01095C19.8018 2.5116 20.8734 2.33366 21.9176 2.50467C22.9619 2.67567 23.9207 3.18609 24.6456 3.95693C24.7543 4.07285 24.8906 4.15922 25.0419 4.20789C25.1931 4.25657 25.3543 4.26596 25.5101 4.23518C25.7989 4.17743 26.0841 4.11093 26.3659 4.03393C26.2388 4.12901 26.1068 4.21722 25.9704 4.29818C25.7889 4.40934 25.6507 4.57901 25.5786 4.77922C25.5065 4.97944 25.5047 5.19825 25.5736 5.39961C25.6425 5.60096 25.7779 5.77284 25.9575 5.88692C26.1372 6.001 26.3503 6.05047 26.5619 6.02718L26.8804 5.98693C26.705 6.1314 26.5246 6.26973 26.3396 6.40168Z" fill=""/>
</svg>
