<svg width="17" height="17" viewBox="0 0 17 17" fill="" xmlns="http://www.w3.org/2000/svg">
<path d="M7.08464 12.7498C8.34191 12.7496 9.56295 12.3287 10.5533 11.5542L13.6672 14.668L14.6688 13.6664L11.5549 10.5526C12.3298 9.5621 12.751 8.34077 12.7513 7.08317C12.7513 3.95871 10.2091 1.4165 7.08464 1.4165C3.96018 1.4165 1.41797 3.95871 1.41797 7.08317C1.41797 10.2076 3.96018 12.7498 7.08464 12.7498ZM7.08464 2.83317C9.42851 2.83317 11.3346 4.7393 11.3346 7.08317C11.3346 9.42704 9.42851 11.3332 7.08464 11.3332C4.74076 11.3332 2.83464 9.42704 2.83464 7.08317C2.83464 4.7393 4.74076 2.83317 7.08464 2.83317Z" fill=""/>
</svg>
